<svg width="107" height="23" viewBox="0 0 107 23" fill="none" xmlns="http://www.w3.org/2000/svg">
<path d="M0.84 17V16.76L1.632 16.52C1.92 16.44 2.128 16.288 2.256 16.064C2.384 15.824 2.448 15.544 2.448 15.224V3.68C2.272 3.296 2.128 3.008 2.016 2.816C1.92 2.624 1.808 2.464 1.68 2.336C1.552 2.192 1.376 2.016 1.152 1.808L0.744 1.4V1.16H4.992L12.96 12.032V2.984C12.96 2.664 12.904 2.376 12.792 2.12C12.696 1.864 12.488 1.696 12.168 1.616L11.376 1.4V1.16H14.808V1.4L14.16 1.616C13.872 1.712 13.696 1.88 13.632 2.12C13.568 2.36 13.536 2.64 13.536 2.96V17.072H12.192L3.024 4.472V15.224C3.024 15.544 3.072 15.816 3.168 16.04C3.264 16.264 3.464 16.424 3.768 16.52L4.488 16.76V17H0.84ZM21.4103 5.096C22.4503 5.096 23.3383 5.312 24.0743 5.744C24.8103 6.16 25.3703 6.736 25.7543 7.472C26.1543 8.192 26.3543 9.016 26.3543 9.944C26.3543 10.12 26.3463 10.304 26.3303 10.496C26.3143 10.672 26.2823 10.832 26.2343 10.976H19.0823C19.0983 12.704 19.4023 13.952 19.9943 14.72C20.6023 15.472 21.4983 15.848 22.6823 15.848C23.4823 15.848 24.1303 15.72 24.6263 15.464C25.1223 15.208 25.5863 14.832 26.0183 14.336L26.2583 14.552C25.7623 15.432 25.0983 16.12 24.2663 16.616C23.4503 17.112 22.4663 17.36 21.3143 17.36C20.1783 17.36 19.1703 17.12 18.2903 16.64C17.4103 16.144 16.7223 15.44 16.2263 14.528C15.7303 13.616 15.4823 12.528 15.4823 11.264C15.4823 9.952 15.7703 8.84 16.3463 7.928C16.9223 7 17.6583 6.296 18.5543 5.816C19.4663 5.336 20.4183 5.096 21.4103 5.096ZM21.3383 5.576C20.8743 5.576 20.4743 5.72 20.1383 6.008C19.8183 6.28 19.5623 6.776 19.3703 7.496C19.1943 8.2 19.0983 9.2 19.0823 10.496H23.1863C23.3463 8.752 23.2823 7.496 22.9943 6.728C22.7063 5.96 22.1543 5.576 21.3383 5.576ZM27.2417 17V16.76L27.8657 16.616C28.2337 16.536 28.5297 16.416 28.7537 16.256C28.9937 16.08 29.2177 15.84 29.4257 15.536L32.0177 11.816L28.7537 6.632C28.5937 6.392 28.4497 6.208 28.3217 6.08C28.1937 5.952 27.9937 5.856 27.7217 5.792L27.3857 5.696V5.456H33.4817V5.696L33.0737 5.792C32.5137 5.968 32.4017 6.32 32.7377 6.848L34.7057 9.896L36.8417 6.944C37.0177 6.672 37.0977 6.448 37.0817 6.272C37.0817 6.08 36.9297 5.944 36.6257 5.864L36.0257 5.696V5.456H39.5297V5.696L38.9537 5.84C38.6017 5.936 38.3297 6.064 38.1377 6.224C37.9457 6.368 37.7377 6.6 37.5137 6.92L34.9937 10.328L38.2817 15.44C38.6817 16.064 39.2177 16.464 39.8897 16.64L40.2737 16.76V17H33.6497V16.76L34.0577 16.664C34.3297 16.6 34.4977 16.472 34.5617 16.28C34.6417 16.072 34.6017 15.84 34.4417 15.584L32.3297 12.296L30.0497 15.608C29.8577 15.864 29.7937 16.088 29.8577 16.28C29.9377 16.456 30.1057 16.576 30.3617 16.64L30.8417 16.76V17H27.2417ZM45.4697 17.36C44.4457 17.36 43.6457 17.104 43.0697 16.592C42.5097 16.08 42.2297 15.264 42.2297 14.144V5.936H40.5737V5.696L41.1497 5.6C41.6457 5.488 42.0697 5.328 42.4217 5.12C42.7897 4.912 43.1497 4.632 43.5017 4.28L45.4697 2.096H45.7097L45.6377 5.456H48.3257V5.936H45.6137V14.576C45.6137 15.136 45.7337 15.56 45.9737 15.848C46.2297 16.136 46.5497 16.28 46.9337 16.28C47.2697 16.28 47.5657 16.2 47.8217 16.04C48.0777 15.864 48.3337 15.632 48.5897 15.344L48.8297 15.584C48.5097 16.128 48.0697 16.56 47.5097 16.88C46.9497 17.2 46.2697 17.36 45.4697 17.36ZM54.7896 17.432C53.9096 17.432 53.0136 17.32 52.1016 17.096C51.1896 16.888 50.4296 16.608 49.8216 16.256L49.9416 12.992H50.1816L50.9256 14.552C51.1496 15 51.3896 15.4 51.6456 15.752C51.9016 16.088 52.2536 16.352 52.7016 16.544C53.0216 16.704 53.3256 16.816 53.6136 16.88C53.9176 16.928 54.2536 16.952 54.6216 16.952C55.5976 16.952 56.3656 16.688 56.9256 16.16C57.5016 15.632 57.7896 14.952 57.7896 14.12C57.7896 13.336 57.5976 12.728 57.2136 12.296C56.8296 11.848 56.2136 11.416 55.3656 11L54.3816 10.568C53.0056 9.96 51.9256 9.264 51.1416 8.48C50.3736 7.68 49.9896 6.624 49.9896 5.312C49.9896 4.368 50.2296 3.552 50.7096 2.864C51.2056 2.176 51.8856 1.648 52.7496 1.28C53.6296 0.911999 54.6536 0.727999 55.8216 0.727999C56.6696 0.727999 57.4696 0.839999 58.2216 1.064C58.9896 1.288 59.6536 1.592 60.2136 1.976L60.0696 4.856H59.8296L58.8456 3.056C58.5736 2.496 58.3016 2.104 58.0296 1.88C57.7576 1.64 57.4456 1.472 57.0936 1.376C56.8856 1.312 56.6936 1.272 56.5176 1.256C56.3416 1.224 56.1176 1.208 55.8456 1.208C55.0296 1.208 54.3416 1.448 53.7816 1.928C53.2216 2.392 52.9416 3.024 52.9416 3.824C52.9416 4.64 53.1576 5.296 53.5896 5.792C54.0216 6.272 54.6536 6.704 55.4856 7.088L56.5896 7.568C58.1256 8.24 59.2296 8.96 59.9016 9.728C60.5736 10.48 60.9096 11.456 60.9096 12.656C60.9096 14.064 60.3736 15.216 59.3016 16.112C58.2456 16.992 56.7416 17.432 54.7896 17.432ZM66.4228 17.36C65.3988 17.36 64.5988 17.104 64.0228 16.592C63.4628 16.08 63.1828 15.264 63.1828 14.144V5.936H61.5268V5.696L62.1028 5.6C62.5988 5.488 63.0228 5.328 63.3748 5.12C63.7428 4.912 64.1028 4.632 64.4548 4.28L66.4228 2.096H66.6628L66.5908 5.456H69.2788V5.936H66.5668V14.576C66.5668 15.136 66.6868 15.56 66.9268 15.848C67.1828 16.136 67.5028 16.28 67.8868 16.28C68.2228 16.28 68.5188 16.2 68.7748 16.04C69.0308 15.864 69.2868 15.632 69.5428 15.344L69.7828 15.584C69.4628 16.128 69.0228 16.56 68.4628 16.88C67.9028 17.2 67.2228 17.36 66.4228 17.36ZM74.0387 17.36C73.1107 17.36 72.3267 17.096 71.6867 16.568C71.0627 16.04 70.7507 15.28 70.7507 14.288C70.7507 13.536 71.1347 12.848 71.9027 12.224C72.6707 11.584 73.8787 11.104 75.5267 10.784C75.7827 10.736 76.0707 10.688 76.3907 10.64C76.7107 10.576 77.0467 10.512 77.3987 10.448V8.552C77.3987 7.464 77.2627 6.704 76.9907 6.272C76.7347 5.824 76.3267 5.6 75.7667 5.6C75.3827 5.6 75.0787 5.728 74.8547 5.984C74.6307 6.224 74.4867 6.648 74.4227 7.256L74.3747 7.52C74.3427 8.208 74.1747 8.712 73.8707 9.032C73.5667 9.352 73.1907 9.512 72.7427 9.512C72.3267 9.512 71.9827 9.384 71.7107 9.128C71.4387 8.872 71.3027 8.528 71.3027 8.096C71.3027 7.44 71.5267 6.888 71.9747 6.44C72.4387 5.992 73.0467 5.656 73.7987 5.432C74.5507 5.208 75.3667 5.096 76.2467 5.096C77.6707 5.096 78.7667 5.448 79.5347 6.152C80.3187 6.84 80.7107 7.968 80.7107 9.536V14.84C80.7107 15.56 81.0467 15.92 81.7187 15.92H82.2467L82.4627 16.112C82.1587 16.496 81.8227 16.792 81.4547 17C81.1027 17.208 80.5987 17.312 79.9427 17.312C79.2387 17.312 78.6787 17.152 78.2627 16.832C77.8627 16.496 77.5987 16.056 77.4707 15.512C76.9907 16.024 76.4947 16.464 75.9827 16.832C75.4867 17.184 74.8387 17.36 74.0387 17.36ZM75.5027 15.896C75.8227 15.896 76.1187 15.824 76.3907 15.68C76.6787 15.52 77.0147 15.28 77.3987 14.96V10.928C77.2387 10.96 77.0787 10.992 76.9187 11.024C76.7587 11.056 76.5747 11.088 76.3667 11.12C75.6307 11.312 75.0387 11.64 74.5907 12.104C74.1587 12.552 73.9427 13.16 73.9427 13.928C73.9427 14.584 74.0947 15.08 74.3987 15.416C74.7027 15.736 75.0707 15.896 75.5027 15.896ZM88.0245 12.848C86.9205 12.848 85.9845 12.664 85.2165 12.296V13.112C85.2165 13.608 85.4645 13.904 85.9605 14L90.4725 14.84C91.2245 14.984 91.9045 15.176 92.5125 15.416C93.1205 15.64 93.6085 15.968 93.9765 16.4C94.3445 16.816 94.5285 17.392 94.5285 18.128C94.5285 18.912 94.2725 19.632 93.7605 20.288C93.2485 20.96 92.4885 21.496 91.4805 21.896C90.4885 22.312 89.2485 22.52 87.7605 22.52C86.4805 22.52 85.4645 22.384 84.7125 22.112C83.9605 21.856 83.4245 21.52 83.1045 21.104C82.8005 20.688 82.6485 20.248 82.6485 19.784C82.6485 19.208 82.8405 18.624 83.2245 18.032C83.6245 17.456 84.1125 16.992 84.6885 16.64C84.1925 16.448 83.8325 16.2 83.6085 15.896C83.3845 15.592 83.2725 15.264 83.2725 14.912C83.2725 14.592 83.3525 14.296 83.5125 14.024C83.6885 13.736 83.8965 13.448 84.1365 13.16L84.9285 12.152C83.7605 11.48 83.1765 10.424 83.1765 8.984C83.1765 7.832 83.5845 6.896 84.4005 6.176C85.2325 5.456 86.4485 5.096 88.0485 5.096C88.8645 5.096 89.5765 5.192 90.1845 5.384C90.8085 5.576 91.3205 5.848 91.7205 6.2C92.2325 6.12 92.7125 5.992 93.1605 5.816C93.6245 5.624 94.0405 5.368 94.4085 5.048L94.7445 5.288V6.512H92.0325C92.6085 7.152 92.8965 7.976 92.8965 8.984C92.8965 10.104 92.4805 11.032 91.6485 11.768C90.8325 12.488 89.6245 12.848 88.0245 12.848ZM88.0005 12.368C88.6405 12.368 89.1045 12.104 89.3925 11.576C89.6965 11.048 89.8485 10.168 89.8485 8.936C89.8485 7.704 89.6965 6.84 89.3925 6.344C89.1045 5.832 88.6565 5.576 88.0485 5.576C87.4565 5.576 87.0085 5.84 86.7045 6.368C86.4005 6.88 86.2485 7.752 86.2485 8.984C86.2485 10.216 86.3845 11.088 86.6565 11.6C86.9445 12.112 87.3925 12.368 88.0005 12.368ZM84.4245 19.016C84.4245 19.96 84.7125 20.672 85.2885 21.152C85.8805 21.632 86.8085 21.872 88.0725 21.872C89.4005 21.872 90.4005 21.656 91.0725 21.224C91.7445 20.792 92.0805 20.184 92.0805 19.4C92.0805 18.952 91.9125 18.592 91.5765 18.32C91.2565 18.048 90.7045 17.84 89.9205 17.696L85.5765 16.88C85.4485 16.848 85.3205 16.816 85.1925 16.784C84.9685 17.104 84.7845 17.464 84.6405 17.864C84.4965 18.28 84.4245 18.664 84.4245 19.016ZM101.192 5.096C102.232 5.096 103.12 5.312 103.856 5.744C104.592 6.16 105.152 6.736 105.536 7.472C105.936 8.192 106.136 9.016 106.136 9.944C106.136 10.12 106.128 10.304 106.112 10.496C106.096 10.672 106.064 10.832 106.016 10.976H98.8635C98.8795 12.704 99.1835 13.952 99.7755 14.72C100.384 15.472 101.28 15.848 102.464 15.848C103.264 15.848 103.912 15.72 104.408 15.464C104.904 15.208 105.368 14.832 105.8 14.336L106.04 14.552C105.544 15.432 104.88 16.12 104.048 16.616C103.232 17.112 102.248 17.36 101.096 17.36C99.9595 17.36 98.9515 17.12 98.0715 16.64C97.1915 16.144 96.5035 15.44 96.0075 14.528C95.5115 13.616 95.2635 12.528 95.2635 11.264C95.2635 9.952 95.5515 8.84 96.1275 7.928C96.7035 7 97.4395 6.296 98.3355 5.816C99.2475 5.336 100.2 5.096 101.192 5.096ZM101.12 5.576C100.656 5.576 100.256 5.72 99.9195 6.008C99.5995 6.28 99.3435 6.776 99.1515 7.496C98.9755 8.2 98.8795 9.2 98.8635 10.496H102.968C103.128 8.752 103.064 7.496 102.776 6.728C102.488 5.96 101.936 5.576 101.12 5.576Z" fill="white"/>
</svg>
